<svg width="727" height="465" viewBox="0 0 727 465" fill="none" xmlns="http://www.w3.org/2000/svg">
<path d="M0 252.847H192.349C192.349 252.847 179.811 232.224 145.34 239.657C145.34 239.657 138.837 211.495 104.898 211.495C75.4861 211.495 67.1979 239.657 67.1979 239.657C67.1979 239.657 45.8187 224.259 28.6048 246.602C28.6048 246.602 4.20784 239.318 0 252.868V252.847Z" fill="#E6F0FF"/>
<path d="M512.358 76.6717H704.707C704.707 76.6717 692.168 56.0489 657.698 63.4825C657.698 63.4825 651.195 35.3199 617.256 35.3199C587.844 35.3199 579.556 63.4825 579.556 63.4825C579.556 63.4825 558.176 48.0844 540.962 70.4275C540.962 70.4275 516.566 63.1426 512.358 76.6929V76.6717Z" fill="#E6F0FF"/>
<path d="M205.525 106.576C204.165 100.459 201.573 94.7671 197.981 89.8822L204.335 80.707L200.489 76.8628L198.874 75.2487L195.027 71.4045L185.379 78.0947C180.3 74.8239 174.477 72.5939 168.292 71.6594L166.295 60.6365H153.119L151.015 72.2328C144.894 73.5284 139.241 76.1407 134.353 79.7301L125.151 73.3585L121.305 77.2027L119.69 78.8168L115.843 82.661L122.537 92.3034C119.265 97.4219 117.033 103.178 116.098 109.422L105.047 111.418V124.586L116.587 126.689C117.947 132.806 120.54 138.498 124.131 143.382L117.777 152.558L121.624 156.402L123.239 158.016L127.085 161.86L136.734 155.17C141.813 158.441 147.636 160.671 153.82 161.605C153.82 161.605 153.82 161.605 153.841 161.605L155.839 172.628H169.015L171.119 161.032C177.239 159.736 182.871 157.124 187.759 153.535L196.982 159.906L200.829 156.062L202.444 154.448L206.29 150.604L199.596 140.94C202.869 135.864 205.1 130.045 206.035 123.864C206.035 123.864 206.035 123.864 206.035 123.843L217.065 121.846V108.678L205.525 106.576ZM161.024 143.191C146.339 143.191 134.438 131.298 134.438 116.622C134.438 101.946 146.339 90.0521 161.024 90.0521C175.709 90.0521 187.61 101.946 187.61 116.622C187.61 131.298 175.709 143.191 161.024 143.191Z" fill="#E6F0FF"/>
<path d="M690.001 226.957C688.981 222.39 687.047 218.121 684.369 214.468L689.129 207.608L686.239 204.72L685.028 203.509L682.138 200.621L674.912 205.612C671.108 203.169 666.751 201.492 662.118 200.791L660.61 192.55H650.749L649.176 201.215C644.586 202.192 640.378 204.125 636.723 206.822L629.837 202.065L626.947 204.953L625.736 206.164L622.845 209.052L627.839 216.274C625.395 220.118 623.738 224.408 623.037 229.059L614.77 230.567V240.422L623.398 241.994C624.418 246.581 626.352 250.829 629.03 254.482L624.269 261.342L627.159 264.231L628.371 265.441L631.261 268.33L638.487 263.339C642.291 265.781 646.626 267.459 651.259 268.139C651.259 268.139 651.259 268.139 651.28 268.139L652.789 276.379H662.65L664.222 267.714C668.813 266.737 673.021 264.804 676.676 262.107L683.561 266.885L686.452 263.997L687.663 262.786L690.553 259.898L685.559 252.677C688.003 248.875 689.682 244.542 690.362 239.912L698.608 238.404V228.55L689.98 226.978L690.001 226.957ZM656.721 254.333C645.733 254.333 636.829 245.434 636.829 234.454C636.829 223.474 645.733 214.575 656.721 214.575C667.708 214.575 676.612 223.474 676.612 234.454C676.612 245.434 667.708 254.333 656.721 254.333Z" fill="#E6F0FF"/>
<path d="M253.661 62.8878C252.938 59.6595 251.578 56.6648 249.686 54.095L253.044 49.2525L251.004 47.2349L250.154 46.3853L248.135 44.3676L243.056 47.8933C240.378 46.1729 237.318 44.9836 234.045 44.4951L232.983 38.6969H226.055L224.949 44.7924C221.719 45.472 218.744 46.8526 216.172 48.7428L211.327 45.3871L209.308 47.426L208.458 48.2756L206.439 50.2932L209.967 55.3693C208.246 58.0666 207.077 61.1037 206.588 64.3745L200.765 65.4364V72.3602L206.843 73.4646C207.566 76.6929 208.926 79.6876 210.817 82.2575L207.481 87.0786L209.521 89.1176L210.371 89.9671L212.39 91.9848L217.469 88.4592C220.147 90.1795 223.207 91.3476 226.458 91.8361L227.521 97.6343H234.449L235.554 91.5175C238.784 90.8379 241.738 89.4574 244.331 87.5671L249.176 90.9229L251.217 88.8839L252.067 88.0344L254.086 86.0167L250.558 80.9407C252.279 78.2646 253.448 75.2062 253.937 71.9567L259.76 70.8948V63.9497L253.682 62.8453L253.661 62.8878ZM230.22 82.1725C222.484 82.1725 216.215 75.9071 216.215 68.1762C216.215 60.4453 222.484 54.1799 230.22 54.1799C237.955 54.1799 244.225 60.4453 244.225 68.1762C244.225 75.9071 237.955 82.1725 230.22 82.1725Z" fill="#E6F0FF"/>
<path d="M429.646 385.758H373.775V437.007H429.646V385.758Z" fill="#B3D2FF"/>
<path d="M448.007 434.607H356.179C353.65 434.607 351.588 436.668 351.588 439.195C351.588 441.722 353.65 443.783 356.179 443.783H448.007C450.536 443.783 452.598 441.722 452.598 439.195C452.598 436.668 450.536 434.607 448.007 434.607Z" fill="#C4DCFF"/>
<path d="M628.881 116.622H174.944C170.32 116.622 166.571 120.368 166.571 124.99V409.567C166.571 414.189 170.32 417.935 174.944 417.935H628.881C633.505 417.935 637.254 414.189 637.254 409.567V124.99C637.254 120.368 633.505 116.622 628.881 116.622Z" fill="#C4DCFF"/>
<path d="M626.947 127.432V407.125C626.947 408.208 626.054 409.1 624.971 409.1H178.854C177.771 409.1 176.878 408.208 176.878 407.125V127.432C176.878 126.349 177.771 125.457 178.854 125.457L624.971 125.457C626.054 125.457 626.947 126.349 626.947 127.432Z" fill="#E6F0FF"/>
<path d="M309.659 165.598H212.283V262.914H309.659V165.598Z" fill="white"/>
<path d="M584.125 165.747H326.044V263.062H584.125V165.747Z" fill="white"/>
<path d="M584.125 273.193H326.044V286.871H584.125V273.193Z" fill="white"/>
<path d="M583.976 296.365H325.895V310.042H583.976V296.365Z" fill="white"/>
<path d="M309.659 273.045H212.283V286.722H309.659V273.045Z" fill="white"/>
<path d="M309.659 296.365H212.283V310.042H309.659V296.365Z" fill="white"/>
<path d="M636.85 334.531H166.571V368.746H636.85V334.531Z" fill="#FFCE2B"/>
<path d="M202.274 334.531L180.937 368.725H166.571V368.385L187.695 334.531H202.274Z" fill="black"/>
<path d="M234.895 334.531L213.537 368.725H198.98L220.338 334.531H234.895Z" fill="black"/>
<path d="M267.538 334.531L246.18 368.725H231.58L252.938 334.531H267.538Z" fill="black"/>
<path d="M300.159 334.531L278.801 368.725H264.223L285.581 334.531H300.159Z" fill="black"/>
<path d="M332.802 334.531L311.444 368.725H296.865L318.223 334.531H332.802Z" fill="black"/>
<path d="M365.445 334.531L344.087 368.725H329.508L350.845 334.531H365.445Z" fill="black"/>
<path d="M398.087 334.531L376.729 368.725H362.129L383.487 334.531H398.087Z" fill="black"/>
<path d="M430.687 334.531L409.329 368.725H394.772L416.13 334.531H430.687Z" fill="black"/>
<path d="M463.33 334.531L441.972 368.725H427.415L448.773 334.531H463.33Z" fill="black"/>
<path d="M495.951 334.531L474.615 368.725H460.015L481.373 334.531H495.951Z" fill="black"/>
<path d="M528.594 334.531L507.236 368.725H492.657L514.015 334.531H528.594Z" fill="black"/>
<path d="M561.237 334.531L539.879 368.725H525.3L546.658 334.531H561.237Z" fill="black"/>
<path d="M593.879 334.531L572.521 368.725H557.943L579.279 334.531H593.879Z" fill="black"/>
<path d="M626.522 334.531L605.164 368.725H590.564L611.922 334.531H626.522Z" fill="black"/>
<path d="M636.85 346.87V368.725H623.207L636.85 346.87Z" fill="black"/>
<path d="M375.9 141.683H327.765V153.535H375.9V141.683Z" fill="#E6F0FF"/>
<path d="M442.363 201.498L267.521 230.143L276.391 284.217L451.233 255.572L442.363 201.498Z" fill="#C4DCFF"/>
<path d="M270.556 229.633C268.324 230.631 351.886 196.585 351.886 196.585L442.354 201.47" stroke="#C4DCFF" stroke-miterlimit="10"/>
<path d="M584.103 19.752H532.802V116.622H584.103V19.752Z" fill="#839FC7"/>
<path d="M592.392 0H502.816V89.5211H592.392V0Z" fill="#839FC7"/>
<path d="M351.61 176.196C360.072 176.196 366.932 169.34 366.932 160.883C366.932 152.426 360.072 145.57 351.61 145.57C343.147 145.57 336.287 152.426 336.287 160.883C336.287 169.34 343.147 176.196 351.61 176.196Z" fill="#839FC7"/>
<path d="M329.147 28.7997H325.895V153.535H329.147V28.7997Z" fill="#839FC7"/>
<path d="M352.842 28.7997H349.591V153.535H352.842V28.7997Z" fill="#839FC7"/>
<path d="M377.898 28.7997H374.647V153.535H377.898V28.7997Z" fill="#839FC7"/>
<path d="M351.843 182.079C350.972 182.079 350.271 181.378 350.271 180.508V163.049C350.271 162.179 350.972 161.478 351.843 161.478C352.715 161.478 353.395 162.179 353.395 163.049V180.508C353.395 181.378 352.694 182.079 351.843 182.079Z" fill="#839FC7"/>
<path d="M377.898 152.26H325.895V165.598H377.898V152.26Z" fill="#839FC7"/>
<path d="M351.588 201.492C349.357 201.492 347.104 200.833 345.149 199.474C342.663 197.754 341.005 195.162 340.453 192.189C339.921 189.216 340.559 186.2 342.301 183.715C344.448 180.614 347.997 178.894 351.758 178.851C352.63 178.851 353.31 179.573 353.31 180.423C353.31 181.294 352.481 181.888 351.737 181.973C348.911 181.952 346.445 183.247 344.894 185.499C343.64 187.304 343.173 189.47 343.555 191.637C343.938 193.803 345.149 195.672 346.956 196.925C350.675 199.495 355.796 198.582 358.368 194.865C359.303 193.506 359.813 191.934 359.834 190.299C359.834 189.449 360.535 188.748 361.407 188.748C362.257 188.748 362.958 189.47 362.937 190.32C362.916 192.593 362.214 194.759 360.918 196.628C358.708 199.792 355.18 201.492 351.588 201.492Z" fill="#839FC7"/>
<path d="M584.273 0H312.124V46.1092H584.273V0Z" fill="#839FC7"/>
<path d="M354.394 7.96451L336.967 38.1447L319.52 7.96451H354.394Z" fill="white"/>
<path d="M381.065 38.1447L363.617 7.96451L346.19 38.1447H381.065Z" fill="white"/>
<path d="M327.531 38.1659H312.124V11.4901L327.531 38.1659Z" fill="white"/>
<path d="M409.521 7.96451L392.073 38.1447L374.647 7.96451H409.521Z" fill="white"/>
<path d="M436.17 38.1447L418.744 7.96451L401.317 38.1447H436.17Z" fill="white"/>
<path d="M464.648 7.96451L447.2 38.1447L429.773 7.96451H464.648Z" fill="white"/>
<path d="M491.297 38.1447L473.871 7.96451L456.444 38.1447H491.297Z" fill="white"/>
<path d="M519.753 7.96451L502.327 38.1447L484.9 7.96451H519.753Z" fill="white"/>
<path d="M546.424 38.1447L528.998 7.96451L511.55 38.1447H546.424Z" fill="white"/>
<path d="M574.88 7.96451L557.454 38.1447L540.027 7.96451H574.88Z" fill="white"/>
<path d="M584.273 8.24061V38.1659H566.698L584.125 7.96451L584.273 8.24061Z" fill="white"/>
<path d="M312.124 0H303.645V46.1092H312.124V0Z" fill="#839FC7"/>
<path d="M592.392 0H583.912V46.1092H592.392V0Z" fill="#839FC7"/>
<path d="M540.006 165.598H532.802V451.471H540.006V165.598Z" fill="#839FC7"/>
<path d="M584.103 165.598H576.899V451.471H584.103V165.598Z" fill="#839FC7"/>
<path d="M579.258 199.622H536.415V203.297H579.258V199.622Z" fill="#839FC7"/>
<path d="M579.258 236.408H536.415V240.082H579.258V236.408Z" fill="#839FC7"/>
<path d="M579.258 273.193H536.415V276.868H579.258V273.193Z" fill="#839FC7"/>
<path d="M579.258 309.979H536.415V313.653H579.258V309.979Z" fill="#839FC7"/>
<path d="M579.258 346.764H536.415V350.438H579.258V346.764Z" fill="#839FC7"/>
<path d="M579.258 383.571H536.415V387.245H579.258V383.571Z" fill="#839FC7"/>
</svg>
